<?xml version="1.0" standalone="no"?>
<!DOCTYPE svg PUBLIC "-//W3C//DTD SVG 20010904//EN"
 "http://www.w3.org/TR/2001/REC-SVG-20010904/DTD/svg10.dtd">
<svg version="1.0" xmlns="http://www.w3.org/2000/svg"
 width="256.000000pt" height="256.000000pt" viewBox="0 0 256.000000 256.000000"
 preserveAspectRatio="xMidYMid meet">
<metadata>
Created by potrace 1.11, written by Peter Selinger 2001-2013
</metadata>
<g transform="translate(0.000000,256.000000) scale(0.100000,-0.100000)"
fill="#000000" stroke="none">
<path d="M1048 2544 c-261 -47 -496 -173 -685 -367 -106 -109 -167 -193 -228
-313 -93 -181 -135 -365 -135 -584 0 -364 127 -668 383 -917 109 -106 193
-167 313 -228 181 -93 365 -135 584 -135 219 0 403 42 584 135 120 61 204 122
313 228 197 192 321 426 368 693 19 112 19 336 0 448 -33 186 -112 375 -221
527 -67 92 -213 237 -305 302 -144 102 -336 181 -515 212 -108 19 -350 18
-456 -1z m672 -328 c0 -2 -16 -23 -35 -47 -19 -24 -35 -48 -35 -52 0 -5 -12
-25 -26 -45 l-27 -37 36 40 35 40 101 3 100 4 3 -123 3 -124 83 -10 c52 -7 87
-16 93 -26 5 -8 9 -315 9 -733 0 -656 -1 -721 -17 -738 -15 -17 -47 -18 -590
-18 l-573 0 0 759 0 759 -111 4 -111 3 -34 37 c-27 30 -34 46 -34 78 0 23 7
54 15 70 29 56 50 60 315 60 132 0 240 -2 240 -5 0 -10 -92 -230 -107 -255 -8
-14 -12 -17 -9 -7 4 12 0 17 -16 17 -12 0 -19 -3 -16 -6 4 -3 -14 -53 -38
-112 -54 -128 -57 -182 -11 -216 25 -18 45 -21 155 -25 70 -1 133 -8 140 -13
20 -17 15 -40 -53 -213 -72 -183 -76 -206 -44 -200 21 4 21 3 4 -15 -33 -37
17 -55 73 -26 44 23 670 659 677 688 10 39 3 59 -28 82 -25 18 -45 21 -150 24
-136 3 -160 7 -137 22 11 7 4 10 -25 10 -22 0 -50 3 -63 6 -18 5 -20 9 -11 23
6 9 -12 -9 -40 -39 l-50 -55 234 -3 c129 -1 234 -6 233 -10 0 -4 -129 -133
-285 -287 l-284 -280 67 120 c37 66 82 143 101 171 18 28 33 56 33 63 0 8 -58
11 -205 11 -113 0 -205 2 -205 5 0 7 239 584 251 608 9 15 28 17 189 17 99 0
180 -2 180 -4z m-689 -413 c-12 -20 -14 -14 -5 12 4 9 9 14 11 11 3 -2 0 -13
-6 -23z m-50 -120 c-12 -20 -14 -14 -5 12 4 9 9 14 11 11 3 -2 0 -13 -6 -23z
m-25 -64 c-9 -19 -15 -29 -16 -22 0 15 22 64 27 60 2 -2 -3 -19 -11 -38z m315
-256 c-12 -20 -14 -14 -5 12 4 9 9 14 11 11 3 -2 0 -13 -6 -23z m-20 -50 c-12
-20 -14 -14 -5 12 4 9 9 14 11 11 3 -2 0 -13 -6 -23z m-20 -50 c-12 -20 -14
-14 -5 12 4 9 9 14 11 11 3 -2 0 -13 -6 -23z m-35 -90 c-8 -15 -15 -25 -16
-21 0 12 23 58 27 54 3 -2 -2 -17 -11 -33z m-25 -60 c-12 -20 -14 -14 -5 12 4
9 9 14 11 11 3 -2 0 -13 -6 -23z"/>
<path d="M1579 2013 c-13 -16 -12 -17 4 -4 9 7 17 15 17 17 0 8 -8 3 -21 -13z"/>
<path d="M1549 1973 c-13 -16 -12 -17 4 -4 9 7 17 15 17 17 0 8 -8 3 -21 -13z"/>
<path d="M1519 1933 c-13 -16 -12 -17 4 -4 9 7 17 15 17 17 0 8 -8 3 -21 -13z"/>
<path d="M1042 763 c3 -17 29 -18 388 -18 336 0 385 2 385 15 0 13 -51 15
-388 18 -366 2 -388 1 -385 -15z"/>
<path d="M1165 620 c-16 -26 15 -30 265 -30 212 0 259 2 263 14 3 8 3 17 0 20
-11 11 -521 7 -528 -4z"/>
</g>
</svg>
